<svg width="47" height="48" viewBox="0 0 47 48" fill="none" xmlns="http://www.w3.org/2000/svg">
<path d="M21.166 35.6665H25.8327V26.3332H35.166V21.6665H25.8327V12.3332H21.166V21.6665H11.8327V26.3332H21.166V35.6665ZM23.4993 47.3332C20.2716 47.3332 17.2382 46.7207 14.3993 45.4957C11.5605 44.2707 9.09101 42.6082 6.99102 40.5082C4.89102 38.4082 3.22852 35.9387 2.00352 33.0998C0.778516 30.261 0.166016 27.2276 0.166016 23.9998C0.166016 20.7721 0.778516 17.7387 2.00352 14.8998C3.22852 12.0609 4.89102 9.5915 6.99102 7.4915C9.09101 5.3915 11.5605 3.729 14.3993 2.504C17.2382 1.279 20.2716 0.666504 23.4993 0.666504C26.7271 0.666504 29.7605 1.279 32.5993 2.504C35.4382 3.729 37.9077 5.3915 40.0077 7.4915C42.1077 9.5915 43.7702 12.0609 44.9952 14.8998C46.2202 17.7387 46.8327 20.7721 46.8327 23.9998C46.8327 27.2276 46.2202 30.261 44.9952 33.0998C43.7702 35.9387 42.1077 38.4082 40.0077 40.5082C37.9077 42.6082 35.4382 44.2707 32.5993 45.4957C29.7605 46.7207 26.7271 47.3332 23.4993 47.3332ZM23.4993 42.6665C28.7105 42.6665 33.1244 40.8582 36.741 37.2415C40.3577 33.6248 42.166 29.2109 42.166 23.9998C42.166 18.7887 40.3577 14.3748 36.741 10.7582C33.1244 7.1415 28.7105 5.33317 23.4993 5.33317C18.2882 5.33317 13.8743 7.1415 10.2577 10.7582C6.64102 14.3748 4.83268 18.7887 4.83268 23.9998C4.83268 29.2109 6.64102 33.6248 10.2577 37.2415C13.8743 40.8582 18.2882 42.6665 23.4993 42.6665Z" fill="black"/>
</svg>
